<?xml version="1.0" standalone="no"?><!DOCTYPE svg PUBLIC "-//W3C//DTD SVG 1.1//EN" "http://www.w3.org/Graphics/SVG/1.1/DTD/svg11.dtd"><svg t="1739939774367" class="icon" viewBox="0 0 1024 1024" version="1.1" xmlns="http://www.w3.org/2000/svg" p-id="7629" xmlns:xlink="http://www.w3.org/1999/xlink" width="200" height="200"><path d="M363.221333 846.08l-9.429333-4.138667c-99.84-43.306667-149.76-64.981333-179.754667-106.112a186.88 186.88 0 0 1-9.984-15.232c-25.856-43.904-25.856-98.304-25.856-207.146666 0-94.293333 0-147.797333 16.810667-188.928a35.2 35.2 0 0 0 6.570667 3.797333L290.986667 384.853333v154.368a32 32 0 0 0 64 0V412.885333l68.096 29.781334c6.101333 2.688 12.330667 5.12 18.602666 7.168 19.882667 6.656 35.328 24.106667 35.328 45.056v374.442666c0 8.234667 2.816 15.786667 7.594667 21.76-30.592-5.674667-65.194667-20.693333-121.344-45.056zM321.28 321.578667l-125.013333-54.656c31.36-27.306667 79.018667-47.957333 157.568-82.048l9.429333-4.096C436.565333 149.034667 473.216 133.12 512 133.12c37.205333 0 72.448 14.634667 139.946667 43.861333l-330.709334 144.64z m396.629333-115.882667a31.914667 31.914667 0 0 1-17.792 20.053333L401.066667 356.565333l50.048 21.888c38.826667 16.981333 82.944 16.981333 121.728 0L827.733333 266.965333c-24.405333-21.290667-58.752-38.528-109.866666-61.226666z m144.512 122.581333a35.114667 35.114667 0 0 0 6.613334-3.797333c16.768 41.130667 16.768 94.592 16.768 188.928 0 108.8 0 163.242667-25.813334 207.146667-3.072 5.205333-6.4 10.325333-9.984 15.232-29.994667 41.130667-79.914667 62.805333-179.754666 106.112l-9.472 4.096c-56.106667 24.32-90.752 39.381333-121.301334 45.098666a34.901333 34.901333 0 0 0 7.594667-21.76v-374.485333c0-20.949333 15.402667-38.4 35.328-45.056 6.272-2.090667 12.458667-4.48 18.602667-7.168l261.418666-114.346667z" fill="#BEC1C8" p-id="7630"></path><path d="M484.565333 891.136a34.901333 34.901333 0 0 1-7.594666-21.76v-374.485333c0-20.949333-15.445333-38.4-35.328-45.056a222.72 222.72 0 0 1-18.602667-7.168l-68.096-29.781334v126.378667a32 32 0 0 1-64 0V384.853333L161.578667 328.32a35.157333 35.157333 0 0 1-6.570667-3.797333c2.56-6.314667 5.546667-12.373333 9.045333-18.218667a186.88 186.88 0 0 1 9.984-15.232c6.4-8.789333 13.696-16.682667 22.186667-24.106667l125.013333 54.698667 330.666667-144.64 8.832 3.84 9.472 4.053333c17.322667 7.552 33.194667 14.421333 47.658667 20.821334a31.914667 31.914667 0 0 1-17.792 20.053333L401.066667 356.565333l50.048 21.888c38.826667 16.981333 82.944 16.981333 121.728 0L827.733333 266.965333c8.533333 7.424 15.786667 15.317333 22.186667 24.106667 3.626667 4.906667 6.954667 9.984 10.026667 15.232 3.413333 5.845333 6.4 11.904 9.045333 18.218667a35.328 35.328 0 0 1-6.613333 3.797333l-261.418667 114.346667a222.592 222.592 0 0 1-18.602667 7.168c-19.882667 6.656-35.328 24.106667-35.328 45.056v374.442666c0 8.234667-2.816 15.786667-7.594666 21.76a147.754667 147.754667 0 0 1-54.869334 0z" fill="#09183F" p-id="7631"></path></svg>