<?xml version="1.0" standalone="no"?><!DOCTYPE svg PUBLIC "-//W3C//DTD SVG 1.1//EN" "http://www.w3.org/Graphics/SVG/1.1/DTD/svg11.dtd"><svg t="1742695947461" class="icon" viewBox="0 0 1024 1024" version="1.1" xmlns="http://www.w3.org/2000/svg" p-id="3713" xmlns:xlink="http://www.w3.org/1999/xlink" width="260" height="260"><path d="M194.75574 734.62h359.137a10.102 10.102 0 0 0 9.448-13.608C550.07774 685.197 562.00774 276.47 573.35174 10.54a10.09 10.09 0 0 0-5.271-9.288 9.996 9.996 0 0 0-10.619 0.587C250.93474 216.266 185.38974 718.246 184.76474 723.272a10.05 10.05 0 0 0 9.99 11.348zM592.95274 721.82a10.14 10.14 0 0 0 9.752 12.8h208.666a10.089 10.089 0 0 0 9.649-13.043c-0.728-2.364-73.257-237.059-209.274-518.454a10.077 10.077 0 0 0-19.097 5.41c0.387 3.736 37.046 379.475 0.304 513.286zM194.57474 864.685a66.533 66.533 0 0 0 10.315-0.726c107.496 3.98 343.837-50.675 353.546-52.916a10.083 10.083 0 0 0-2.3-19.909H125.27474a10.057 10.057 0 0 0-9.424 13.692c20.648 54.048 61.95 59.859 78.725 59.859zM1021.93474 919.845c-51.858-68.42-202.268-82.776-319.289-82.776-75.883 0-136.056 6.097-138.42 6.502-195.969 56.186-490.47 59.053-547.516 59.053l-6.519-0.022h-0.08a10.096 10.096 0 0 0-6.098 18.152c33.368 25.257 103.798 38.055 209.313 38.055 102.95 0 236.544-12.74 357.38-34.117 46.813-8.26 101.598-12.439 162.784-12.439 144.05 0 277.322 23.376 278.673 23.603a10.323 10.323 0 0 0 10.378-4.664 10.014 10.014 0 0 0-0.606-11.347zM711.63074 963.147c-29.835-8.136-61.244-12.111-96.007-12.111-52.12 0-104.788 9.086-155.759 17.869-50.506 8.72-102.83 17.704-154.063 17.704a383.805 383.805 0 0 1-51.86-3.33 9.889 9.889 0 0 0-11.083 7.167 10.15 10.15 0 0 0 5.513 11.993c7.973 3.635 53.917 13.365 98.59 18.858a324.854 324.854 0 0 0 42.21 2.703c50.628 0 99.279-11.103 146.313-21.824 47.478-10.803 92.33-21.017 139.587-21.017a289.116 289.116 0 0 1 32.782 1.777 10.106 10.106 0 0 0 3.777-19.79z" fill="#3E6CDC" p-id="3714"></path></svg>